<svg xmlns:dc="http://purl.org/dc/elements/1.1/" xmlns:cc="http://creativecommons.org/ns#" xmlns:rdf="http://www.w3.org/1999/02/22-rdf-syntax-ns#" xmlns:svg="http://www.w3.org/2000/svg" xmlns="http://www.w3.org/2000/svg" xmlns:sodipodi="http://sodipodi.sourceforge.net/DTD/sodipodi-0.dtd" xmlns:inkscape="http://www.inkscape.org/namespaces/inkscape" version="1.1" x="0px" y="0px" viewBox="0 0 100 125"><g transform="translate(0,-952.36218)"><path style="color:#000000;enable-background:accumulate;" d="m 47.499975,967.36215 c -1.38071,0 -2.5,1.11929 -2.5,2.5 0,0.99703 0.59322,1.84863 1.4375,2.25 0.94337,-0.91976 2.30214,-1.46486 3.4375,-1.5 0.076,-0.23909 0.125,-0.48575 0.125,-0.75 0,-1.38071 -1.11929,-2.5 -2.5,-2.5 z m 2.5,2.5 c 0,0.26425 0.049,0.51091 0.125,0.75 1.39541,0.0494 2.57347,0.62828 3.46875,1.5 0.83157,-0.40608 1.40625,-1.26226 1.40625,-2.25 0,-1.38071 -1.11929,-2.5 -2.5,-2.5 -1.38071,0 -2.5,1.11929 -2.5,2.5 z m -28,2.5 c -7,10e-6 -18,2 -18,6 0,4 11,5 16,5 6.125,0 16.8418,-2.29492 26.125,-6.21875 l -0.0937,-2.25 c -8.54219,-1.05113 -18.84525,-2.53124 -24.0313,-2.53125 z m 56,0 c -5.18605,10e-6 -15.48911,1.48012 -24.03125,2.53125 l -0.0937,2.25 c 9.2832,3.92383 20,6.21875 26.125,6.21875 5,0 16,-1 16,-5 0,-4 -11,-5.99999 -18,-6 z m -28,0.25 c -0.75,0 -1.5,0.25 -2,0.75 l 2,64.00005 2,-64.00005 c -0.5,-0.5 -1.25,-0.75 -2,-0.75 z m -3.8125,6.53125 c -5.44072,2.31005 -12.38246,5.03199 -15.53125,6.84375 -4.07969,2.34743 -9.8147,7.20791 -8.46875,9.53125 1.34595,2.32334 8.11718,-0.79203 11.03125,-2.46875 3.5389,-2.03624 8.92406,-6.88518 13,-12.21875 z m 7.625,0 -0.0312,1.6875 c 4.07594,5.33357 9.4611,10.18251 13,12.21875 2.91407,1.67672 9.6853,4.79209 11.03125,2.46875 1.34595,-2.32334 -4.38906,-7.18382 -8.46875,-9.53125 -3.14879,-1.81176 -10.09053,-4.5337 -15.53125,-6.84375 z" fill="#000000" stroke="none" marker="none" visibility="visible" display="inline" overflow="visible"/></g><text x="0" y="115" fill="#000000" font-size="5px" font-weight="bold" font-family="'Helvetica Neue', Helvetica, Arial-Unicode, Arial, Sans-serif">Created by AFY Studio</text><text x="0" y="120" fill="#000000" font-size="5px" font-weight="bold" font-family="'Helvetica Neue', Helvetica, Arial-Unicode, Arial, Sans-serif">from the Noun Project</text></svg>