<?xml version="1.0" standalone="no"?><!-- Generator: Gravit.io --><svg xmlns="http://www.w3.org/2000/svg" xmlns:xlink="http://www.w3.org/1999/xlink" style="isolation:isolate" viewBox="0 0 80 16" width="80" height="16"><defs><clipPath id="_clipPath_90wo8TabDF5IWyM0QRGQKVKyE6IaEGLv"><rect width="80" height="16"/></clipPath></defs><g clip-path="url(#_clipPath_90wo8TabDF5IWyM0QRGQKVKyE6IaEGLv)"><g id="Group"><path d=" M 46.95 1.2 L 32.95 1.2 C 32.35 1.2 31.95 1.6 31.95 2.2 L 31.95 14.2 C 31.95 14.8 32.35 15.2 32.95 15.2 L 46.95 15.2 C 47.55 15.2 47.95 14.8 47.95 14.2 L 47.95 2.2 C 47.95 1.6 47.55 1.2 46.95 1.2 Z  M 45.95 13.2 L 33.95 13.2 L 33.95 6.9 L 39.45 10 C 39.65 10.2 39.75 10.2 39.95 10.2 C 40.15 10.2 40.25 10.2 40.45 10.1 L 45.95 6.9 L 45.95 13.2 Z  M 45.95 4.6 L 39.95 8 L 33.95 4.6 L 33.95 3.2 L 45.95 3.2 L 45.95 4.6 Z " fill="rgb(255,255,255)"/></g><g id="Group"><path d=" M 67.055 16 L 77.055 16 C 77.655 16 78.055 15.6 78.055 15 L 78.055 7.5 L 78.355 7.8 C 78.555 7.9 78.855 8 79.055 8 C 79.355 8 79.655 7.9 79.855 7.7 C 80.255 7.3 80.155 6.7 79.755 6.3 L 72.755 0.3 C 72.355 0 71.855 0 71.455 0.3 L 68.055 3.1 L 68.055 2 C 68.055 1.4 67.655 1 67.055 1 C 66.455 1 66.055 1.4 66.055 2 L 66.055 4.8 L 64.355 6.2 C 63.955 6.6 63.855 7.2 64.255 7.6 C 64.655 8 65.255 8.1 65.655 7.7 L 66.055 7.5 L 66.055 15 C 66.055 15.6 66.455 16 67.055 16 Z  M 68.055 5.7 L 72.055 2.3 L 76.055 5.8 C 76.055 5.9 76.055 5.9 76.055 6 L 76.055 14 L 74.055 14 L 74.055 11 C 74.055 10.4 73.655 10 73.055 10 L 71.055 10 C 70.455 10 70.055 10.4 70.055 11 L 70.055 14 L 68.055 14 L 68.055 5.7 Z " fill="rgb(255,255,255)"/><rect x="70.055" y="6" width="4" height="2" transform="matrix(1,0,0,1,0,0)" fill="rgb(255,255,255)"/></g><g id="Group"><path d=" M 6 0.125 L 1 0.125 C 0.4 0.125 0 0.525 0 1.125 L 0 6.125 C 0 6.725 0.4 7.125 1 7.125 L 6 7.125 C 6.6 7.125 7 6.725 7 6.125 L 7 1.125 C 7 0.525 6.6 0.125 6 0.125 Z  M 5 5.125 L 2 5.125 L 2 2.125 L 5 2.125 L 5 5.125 Z " fill="rgb(255,255,255)"/><path d=" M 15 0.125 L 10 0.125 C 9.4 0.125 9 0.525 9 1.125 L 9 6.125 C 9 6.725 9.4 7.125 10 7.125 L 15 7.125 C 15.6 7.125 16 6.725 16 6.125 L 16 1.125 C 16 0.525 15.6 0.125 15 0.125 Z  M 14 5.125 L 11 5.125 L 11 2.125 L 14 2.125 L 14 5.125 Z " fill="rgb(255,255,255)"/><path d=" M 6 9.125 L 1 9.125 C 0.4 9.125 0 9.525 0 10.125 L 0 15.125 C 0 15.725 0.4 16.125 1 16.125 L 6 16.125 C 6.6 16.125 7 15.725 7 15.125 L 7 10.125 C 7 9.525 6.6 9.125 6 9.125 Z  M 5 14.125 L 2 14.125 L 2 11.125 L 5 11.125 L 5 14.125 Z " fill="rgb(255,255,255)"/><path d=" M 15 9.125 L 10 9.125 C 9.4 9.125 9 9.525 9 10.125 L 9 15.125 C 9 15.725 9.4 16.125 10 16.125 L 15 16.125 C 15.6 16.125 16 15.725 16 15.125 L 16 10.125 C 16 9.525 15.6 9.125 15 9.125 Z  M 14 14.125 L 11 14.125 L 11 11.125 L 14 11.125 L 14 14.125 Z " fill="rgb(255,255,255)"/></g><path d=" M 59.283 0.505 C 58.765 -0.023 57.987 -0.023 57.468 0.505 L 48.389 9.755 C 48.13 10.019 48 10.283 48 10.679 L 48 14.643 C 48 15.436 48.518 15.965 49.297 15.965 L 53.187 15.965 C 53.577 15.965 53.836 15.832 54.096 15.568 L 63.174 6.319 C 63.693 5.791 63.693 4.998 63.174 4.469 L 59.283 0.505 Z  M 52.669 13.322 L 50.593 13.322 L 50.593 11.208 L 58.375 3.28 L 60.45 5.394 L 52.669 13.322 Z " fill="rgb(255,255,255)"/><g id="Group"><path d=" M 23.915 8.925 C 26.115 8.925 27.915 7.319 27.915 5.355 L 27.915 3.57 C 27.915 1.607 26.115 0 23.915 0 C 21.715 0 19.915 1.607 19.915 3.57 L 19.915 5.355 C 19.915 7.319 21.715 8.925 23.915 8.925 Z  M 21.915 3.57 C 21.915 2.588 22.815 1.785 23.915 1.785 C 25.015 1.785 25.915 2.588 25.915 3.57 L 25.915 5.355 C 25.915 6.337 25.015 7.14 23.915 7.14 C 22.815 7.14 21.915 6.337 21.915 5.355 L 21.915 3.57 Z " fill="rgb(255,255,255)"/><path d=" M 31.815 15.07 C 31.915 15.516 31.515 15.962 31.015 16.052 C 30.515 16.141 29.915 15.784 29.915 15.338 C 29.415 12.66 26.915 10.697 23.915 10.697 C 20.915 10.697 18.415 12.66 18.015 15.248 C 17.915 15.784 17.415 16.141 16.815 16.052 C 16.315 15.962 15.915 15.516 16.015 15.07 C 16.515 11.857 19.415 9.447 22.915 9.001 L 22.915 7.126 L 24.915 7.126 L 24.915 9.001 C 28.415 9.358 31.315 11.857 31.815 15.07 Z " fill="rgb(255,255,255)"/></g></g></svg>